<?xml version="1.0" encoding="UTF-8"?>
<svg version="1.1" xmlns="http://www.w3.org/2000/svg" width="439" height="618">
<path d="M0 0 C4.79415109 1.53412835 8.54829386 4.48687974 12.125 8 C12.125 8.66 12.125 9.32 12.125 10 C12.929375 10.268125 13.73375 10.53625 14.5625 10.8125 C15.408125 11.204375 16.25375 11.59625 17.125 12 C17.62 13.485 17.62 13.485 18.125 15 C20.12516466 16.20882096 20.12516466 16.20882096 22.125 17 C22.125 17.66 22.125 18.32 22.125 19 C23.2078125 19.3403125 23.2078125 19.3403125 24.3125 19.6875 C27.68932417 21.26335128 29.68267039 23.20876616 32.125 26 C32.125 26.66 32.125 27.32 32.125 28 C33.445 28.66 34.765 29.32 36.125 30 C36.125 30.66 36.125 31.32 36.125 32 C37.01832031 32.38865234 37.01832031 32.38865234 37.9296875 32.78515625 C40.30192182 34.09790513 41.52918309 35.35781927 43.25 37.4375 C46.06376913 40.7732263 48.96325316 43.99380324 51.9375 47.1875 C56.5752333 52.26422485 60.7620216 57.57090486 64.8984375 63.0546875 C66.27937111 64.88139618 67.68187118 66.69226732 69.1171875 68.4765625 C89.125 93.62256809 89.125 93.62256809 89.125 100 C98.0010015 100.12441197 106.87488911 100.18917546 115.75176334 100.17878246 C119.87436887 100.1758091 123.99479135 100.19301366 128.11694336 100.25708008 C132.09900621 100.31821448 136.07791465 100.32536663 140.06030083 100.29583168 C141.57575698 100.29393488 143.09136688 100.31116308 144.60637093 100.34822655 C149.28194032 100.45529059 153.606774 100.37798961 158.125 99 C161.46443721 95.72772945 163.20433409 92.214371 165.125 88 C166.13371255 86.43657282 167.17080058 84.89062996 168.25 83.375 C168.82234375 82.56675781 169.3946875 81.75851563 169.984375 80.92578125 C187.39086854 57.13478917 187.39086854 57.13478917 194.125 50 C194.785 50 195.445 50 196.125 50 C196.785 48.68 197.445 47.36 198.125 46 C198.785 46 199.445 46 200.125 46 C200.39054687 45.41863281 200.65609375 44.83726563 200.9296875 44.23828125 C204.28794109 37.94978679 209.94011082 33.07967669 215.328125 28.54296875 C217.14948856 27.0324814 217.14948856 27.0324814 218.734375 25.30078125 C220.125 24 220.125 24 222.125 24 C222.434375 23.1646875 222.434375 23.1646875 222.75 22.3125 C224.70183032 19.02987629 227.06730994 17.29326754 230.125 15 C230.785 15 231.445 15 232.125 15 C232.125 14.34 232.125 13.68 232.125 13 C235.58653846 10 235.58653846 10 238.125 10 C238.125 9.34 238.125 8.68 238.125 8 C239.775 7.34 241.425 6.68 243.125 6 C243.125 5.34 243.125 4.68 243.125 4 C246.06498182 1.59456033 247.67996246 0.9922915 251.5078125 1.05859375 C256.1146581 2.25756761 257.24849594 3.88838296 259.9375 7.75 C260.68644531 8.79671875 261.43539063 9.8434375 262.20703125 10.921875 C263.86987393 13.59055124 265.09006441 16.04304117 266.125 19 C266.785 19 267.445 19 268.125 19 C275.84909652 29.29215953 281.57352104 41.43789721 287.125 53 C287.94291016 54.68416016 287.94291016 54.68416016 288.77734375 56.40234375 C300.76272652 81.90082599 307.88402669 110.81951056 308.125 139 C308.1436409 140.33903793 308.16289415 141.67806742 308.18261719 143.01708984 C308.6346379 175.53715667 308.6346379 175.53715667 306.5625 190.328125 C305.65372783 197.95532004 305.80186302 202.65197752 310.625 209 C319.40151893 221.36478653 325.15298622 234.73807692 330.125 249 C330.56714844 250.23492187 331.00929688 251.46984375 331.46484375 252.7421875 C337.50000675 270.09557413 342.62352459 289.24657925 340.5625 307.75 C340.03185334 312.54994022 340.48153209 316.2957878 341.5625 321 C346.97385779 345.39108033 343.95384085 372.41865898 330.6875 393.75 C329.51203614 395.50810721 328.3250556 397.25858598 327.125 399 C326.60679687 399.79019531 326.08859375 400.58039063 325.5546875 401.39453125 C325.06226563 402.10996094 324.56984375 402.82539063 324.0625 403.5625 C323.63839844 404.18253906 323.21429688 404.80257813 322.77734375 405.44140625 C321.125 407 321.125 407 315.125 409 C314.795 404.38 314.465 399.76 314.125 395 C312.08064623 399.08870754 311.20688867 402.88797225 310.3125 407.3125 C306.63369962 424.45377717 300.67241876 440.6135988 290.5078125 455.02734375 C288.57035867 457.79122562 286.84643237 460.67606859 285.10546875 463.56640625 C284.62013672 464.27603516 284.62013672 464.27603516 284.125 465 C283.795 465 283.465 465 283.125 465 C283.26863527 463.62476865 283.41503517 462.24982598 283.5625 460.875 C283.64371094 460.10929687 283.72492188 459.34359375 283.80859375 458.5546875 C284.16379999 455.68672599 284.63390106 452.8475485 285.125 450 C284.59132813 450.84820312 284.05765625 451.69640625 283.5078125 452.5703125 C278.35624121 460.70209294 272.95822055 468.60351599 267.29638672 476.38769531 C266.21437389 477.87698516 265.14003808 479.3718445 264.06640625 480.8671875 C260.41632208 485.93470878 256.70123232 490.95391016 252.9375 495.9375 C252.33131836 496.75359741 252.33131836 496.75359741 251.71289062 497.58618164 C249.15861868 500.93840228 246.43774066 503.42218668 243.125 506 C242.465 506.99 241.805 507.98 241.125 509 C240.465 509 239.805 509 239.125 509 C239.00382812 508.04738281 238.88265625 507.09476562 238.7578125 506.11328125 C238.59023438 504.85902344 238.42265625 503.60476563 238.25 502.3125 C238.08757812 501.07113281 237.92515625 499.82976562 237.7578125 498.55078125 C237.20021631 495.42204705 236.43491877 492.87851898 235.125 490 C234.39796875 491.70542969 234.39796875 491.70542969 233.65625 493.4453125 C229.01317421 504.19572879 223.82547543 514.21316505 217.77416992 524.23779297 C215.12404295 528.63946312 212.50539162 533.05531713 209.94140625 537.5078125 C209.40580078 538.43207031 208.87019531 539.35632813 208.31835938 540.30859375 C207.22870665 542.19036527 206.14538921 544.07581917 205.06835938 545.96484375 C202.02285124 551.19302698 198.81416958 555.73774805 194.72485352 560.1953125 C192.43511022 562.77821841 190.66427785 565.52438254 188.8125 568.4375 C185.33620294 573.89439853 185.33620294 573.89439853 183.125 575 C184.68061705 569.39724918 186.49131606 564.01149849 188.6875 558.625 C191.1071154 552.49579351 192.33718329 546.5259444 193.125 540 C192.48433594 540.58007812 191.84367187 541.16015625 191.18359375 541.7578125 C183.26011228 548.9137436 183.26011228 548.9137436 179.3125 552.25 C175.07419926 555.86589294 171.30781109 559.76970214 167.6875 564 C164.75545251 567.39433575 161.57314427 570.12654644 158.125 573 C156.37287264 574.87940053 154.70512336 576.81407644 153.04296875 578.7734375 C151.70348069 580.328444 150.32766672 581.85256596 148.92578125 583.3515625 C143.49041911 589.16527752 139.16602763 595.15347732 135.125 602 C134.49207031 603.06347656 133.85914063 604.12695312 133.20703125 605.22265625 C129.49182824 611.51663732 129.49182824 611.51663732 126.125 618 C124.145 618 122.165 618 120.125 618 C120.186875 617.0925 120.24875 616.185 120.3125 615.25 C120.29514491 606.69393969 117.40288806 598.31380862 113.125 591 C112.465 590.67 111.805 590.34 111.125 590 C110.795 590.66 110.465 591.32 110.125 592 C109.75375 591.505 109.3825 591.01 109 590.5 C107.12662681 588.68114524 107.12662681 588.68114524 104.0625 589 C103.093125 589 102.12375 589 101.125 589 C98.86140922 585.60461383 99.01039568 584.94425555 99.3125 581.0625 C99.49284345 573.54818943 96.41977419 567.58954838 93.125 561 C91.3925 560.2884375 91.3925 560.2884375 89.625 559.5625 C88.47 559.046875 87.315 558.53125 86.125 558 C85.795 557.01 85.465 556.02 85.125 555 C83.10991642 554.26676204 83.10991642 554.26676204 81.125 554 C81.125 553.34 81.125 552.68 81.125 552 C80.135 551.67 79.145 551.34 78.125 551 C77.98214286 542.42857143 77.98214286 542.42857143 79.125 539 C75.09507218 539.55312735 71.10477076 540.1558062 67.125 541 C68.115 541.99 69.105 542.98 70.125 544 C69.465 544.66 68.805 545.32 68.125 546 C53.50822696 539.49131535 42.22066128 530.21892461 30.6484375 519.3125 C27.13751879 516.09506366 24.73180341 514.11815617 20.125 513 C18.01953125 511.73046875 18.01953125 511.73046875 15.9375 510.1875 C15.24269531 509.68605469 14.54789062 509.18460937 13.83203125 508.66796875 C11.87122397 506.75203121 11.69371512 505.61714271 11.125 503 C8.64838502 500.75149517 8.64838502 500.75149517 6.125 499 C5.795 500.32 5.465 501.64 5.125 503 C3.6709375 501.9171875 3.6709375 501.9171875 2.1875 500.8125 C-0.43900868 498.92371587 -3.05952111 497.34632629 -5.9375 495.875 C-33.6614677 480.73997682 -53.72694876 452.05224896 -62.6953125 422.296875 C-68.16155423 402.98687639 -68.9728261 383.86619754 -66.65698242 364.03540039 C-66.05273759 358.85714416 -65.6377772 353.70623421 -65.375 348.5 C-65.13107467 343.96479563 -64.70125363 339.6891836 -63.75 335.25 C-62.32177815 328.21468497 -63.36096539 321.4583946 -64.40625 314.42578125 C-67.44120484 290.07408761 -63.66539881 265.96655403 -54.625 243.3125 C-54.34422607 242.60150146 -54.06345215 241.89050293 -53.77416992 241.15795898 C-52.26829218 237.57165195 -50.69307648 234.60165869 -48.1796875 231.62109375 C-44.34330565 226.92798408 -41.63126306 223.15096063 -42.11816406 216.85644531 C-43.50289864 209.26894549 -45.72666149 201.91468335 -47.90527344 194.52441406 C-49.24910152 189.64035006 -50.09225096 184.76740223 -50.75 179.75 C-50.86029541 178.91065918 -50.97059082 178.07131836 -51.08422852 177.20654297 C-52.06927583 169.15602714 -52.60930431 161.10371844 -52.875 153 C-52.91625 151.989375 -52.9575 150.97875 -53 149.9375 C-53.66428389 118.71615715 -47.68258479 86.98012303 -35.76074219 58.16674805 C-35.14212866 56.65346386 -34.53987484 55.13343429 -33.95019531 53.60864258 C-31.56959543 47.47314385 -28.81507758 41.63461814 -25.75 35.8125 C-25.27208008 34.90338867 -24.79416016 33.99427734 -24.30175781 33.05761719 C-19.99239275 24.99282653 -15.17951396 17.43903584 -9.875 10 C-9.2253125 9.03707031 -8.575625 8.07414063 -7.90625 7.08203125 C-3.8448981 1.33735586 -3.8448981 1.33735586 0 0 Z M82.125 547 C82.455 547.99 82.785 548.98 83.125 550 C83.125 549.01 83.125 548.02 83.125 547 C82.795 547 82.465 547 82.125 547 Z M120.125 603 C121.125 606 121.125 606 121.125 606 Z " fill="#060202" transform="translate(77.875,0)"/>
<path d="M0 0 C4.93244543 -0.31724764 8.70386807 0.72765466 13.1875 2.625 C13.84532471 2.89932861 14.50314941 3.17365723 15.1809082 3.45629883 C26.69234717 8.34575417 35.1281682 14.30896244 44 23 C44.68964844 23.65097656 45.37929687 24.30195313 46.08984375 24.97265625 C47.44121228 26.26679035 48.73087649 27.6251162 50 29 C50 29.66 50 30.32 50 31 C48.99839844 31.12117188 47.99679688 31.24234375 46.96484375 31.3671875 C45.6223597 31.53617151 44.27991377 31.70545858 42.9375 31.875 C42.28072266 31.95363281 41.62394531 32.03226563 40.94726562 32.11328125 C36.4664808 32.68717487 32.31648825 33.66407776 28 35 C28 35.66 28 36.32 28 37 C28.804375 37.20625 29.60875 37.4125 30.4375 37.625 C43.55671422 42.68855636 52.24222387 53.20370939 58.2578125 65.58984375 C65.83064593 84.241452 63.20291894 105.47899876 61 124.9375 C60.80655233 126.69978879 60.61383965 128.46215842 60.421875 130.22460938 C59.95635629 134.4840493 59.4810041 138.74228216 59 143 C60.11929569 141.43211646 61.23435219 139.86120616 62.34765625 138.2890625 C62.96906494 137.41459473 63.59047363 136.54012695 64.23071289 135.63916016 C66.52318913 132.21958404 68.27207473 128.73231859 70 125 C70.33 125 70.66 125 71 125 C69.94265309 156.50164597 69.94265309 156.50164597 63.18359375 165.32421875 C60.38477559 169.28690188 59.60130023 173.59154851 58.875 178.3125 C58.62363281 179.91544922 58.62363281 179.91544922 58.3671875 181.55078125 C58.24601563 182.35902344 58.12484375 183.16726563 58 184 C59.12535156 183.91298828 59.12535156 183.91298828 60.2734375 183.82421875 C67.94689513 183.4859681 73.64550999 184.50628694 80 189 C80.66 189.99 81.32 190.98 82 192 C81.3709375 192.20753906 80.741875 192.41507813 80.09375 192.62890625 C73.47647709 195.01072587 66.30456876 198.39086248 63 205 C63.90492188 204.69255859 63.90492188 204.69255859 64.828125 204.37890625 C65.62734375 204.10949219 66.4265625 203.84007812 67.25 203.5625 C68.03890625 203.29566406 68.8278125 203.02882813 69.640625 202.75390625 C74.19498902 201.29862106 78.0511417 200.83843472 82.875 200.8125 C84.06867188 200.79832031 85.26234375 200.78414062 86.4921875 200.76953125 C90.72391902 201.04756261 94.27413469 201.90695197 97.875 204.1875 C99.64275934 207.03555672 99.18455937 209.7394511 99 213 C91.19013549 217.56803396 85.19974696 219.22919375 76 218 C73.34937329 217.03415146 70.8764735 215.79905122 68.375 214.5 C62.46721251 211.44994002 56.66615702 208.93195129 50 211 C47.09891176 213.0324008 45.31143359 214.59453966 44.52587891 218.13964844 C44.32404808 220.69755579 44.30706769 223.18508373 44.375 225.75 C44.39820313 227.09698975 44.39820313 227.09698975 44.421875 228.47119141 C44.71662146 236.24087822 46.15261539 241.17872886 51.7265625 246.71484375 C56.24470162 250.51714601 61.20485215 252.42166432 66.77734375 254.23828125 C69 255 69 255 70 256 C70.5 258.6875 70.5 258.6875 70 262 C66.63700619 265.92657244 62.19091483 269.33093721 57.0625 270.40625 C47.65257759 270.83397375 39.51889796 265.75909744 32.65576172 259.6953125 C29.91841098 256.89257533 28.06230677 253.69536382 26.125 250.3125 C17.00616996 235.15138462 5.09823549 222.2073791 -9.125 211.6875 C-9.76453613 211.213125 -10.40407227 210.73875 -11.06298828 210.25 C-14.6659025 207.60906127 -14.6659025 207.60906127 -19 207 C-18.65855957 207.46672119 -18.31711914 207.93344238 -17.96533203 208.41430664 C-8.13402114 221.8767801 1.21068955 235.54047297 10.125 249.625 C10.63667725 250.43090576 11.14835449 251.23681152 11.67553711 252.06713867 C13.92164577 255.62326582 16.13133854 259.18177808 18.1875 262.8515625 C22.98190842 271.26110953 27.97808231 276.90945274 37.296875 280.14453125 C48.06312145 282.63167046 57.97172361 282.14380947 67.58203125 276.41015625 C73.24127771 273.10969103 79.6153958 273.51216831 86 274 C89.16820476 275.18807679 91.18433412 276.17609507 93.546875 278.5625 C97.40245051 280.82181813 101.3562417 280.57392427 105.75 280.6875 C106.63816406 280.72166016 107.52632812 280.75582031 108.44140625 280.79101562 C110.62747803 280.87328714 112.81315951 280.94250172 115 281 C99.3125769 294.21046156 79.79269032 297.15285919 60 296 C52.08247554 295.07751759 44.47008595 292.70468629 37 290 C42.39613275 301.98173563 53.19806215 313.19810804 65.4375 318.0625 C77.76149027 321.24288459 87.83907271 317.98478838 99 313 C100.20011719 312.47019531 101.40023437 311.94039062 102.63671875 311.39453125 C115.60686384 305.27982679 126.67256908 296.89050115 137 287 C137.845625 286.195625 138.69125 285.39125 139.5625 284.5625 C140.366875 283.716875 141.17125 282.87125 142 282 C142.64195312 281.34128906 143.28390625 280.68257813 143.9453125 280.00390625 C149.70154701 273.89668184 154.30370508 267.34624217 158.8359375 260.3203125 C160.48120505 257.79598504 162.15043248 255.37460604 164 253 C160.38511446 273.92077613 144.43823985 293.23411477 130 308 C129.24074219 308.80953125 128.48148438 309.6190625 127.69921875 310.453125 C123.88202645 314.43981962 120.09539738 317.68640175 115.5 320.75 C110.07440999 324.55544855 106.86195567 329.09395706 103.29296875 334.578125 C95.80984355 345.99888429 85.72889259 355.52675714 76 365 C78.16788979 363.77295002 80.33447394 362.54371078 82.5 361.3125 C83.1384082 360.950354 83.77681641 360.58820801 84.43457031 360.21508789 C87.9409861 358.21504327 91.37267515 356.15152407 94.75 353.9375 C95.8225 353.298125 96.895 352.65875 98 352 C98.66 352.33 99.32 352.66 100 353 C99.3709375 354.07894531 98.741875 355.15789062 98.09375 356.26953125 C89.76472674 370.76353658 83.13974899 385.37518373 78.4375 401.4375 C78.17356445 402.33186768 77.90962891 403.22623535 77.63769531 404.14770508 C77.4053418 404.98454834 77.17298828 405.8213916 76.93359375 406.68359375 C76.72790771 407.42150146 76.52222168 408.15940918 76.31030273 408.91967773 C75.96445761 411.23828225 76.28543133 412.78568072 77 415 C75.35 415 73.7 415 72 415 C72.061875 414.0925 72.12375 413.185 72.1875 412.25 C72.17014491 403.69393969 69.27788806 395.31380862 65 388 C64.34 387.67 63.68 387.34 63 387 C62.67 387.66 62.34 388.32 62 389 C61.62875 388.505 61.2575 388.01 60.875 387.5 C59.00162681 385.68114524 59.00162681 385.68114524 55.9375 386 C54.968125 386 53.99875 386 53 386 C50.73640922 382.60461383 50.88539568 381.94425555 51.1875 378.0625 C51.36784345 370.54818943 48.29477419 364.58954838 45 358 C43.2675 357.2884375 43.2675 357.2884375 41.5 356.5625 C40.345 356.046875 39.19 355.53125 38 355 C37.67 354.01 37.34 353.02 37 352 C34.98491642 351.26676204 34.98491642 351.26676204 33 351 C33 350.34 33 349.68 33 349 C32.01 348.67 31.02 348.34 30 348 C29.85714286 339.42857143 29.85714286 339.42857143 31 336 C26.97007218 336.55312735 22.97977076 337.1558062 19 338 C19.99 338.99 20.98 339.98 22 341 C21.34 341.66 20.68 342.32 20 343 C5.38322696 336.49131535 -5.90433872 327.21892461 -17.4765625 316.3125 C-20.98748121 313.09506366 -23.39319659 311.11815617 -28 310 C-30.10546875 308.73046875 -30.10546875 308.73046875 -32.1875 307.1875 C-32.88230469 306.68605469 -33.57710938 306.18460937 -34.29296875 305.66796875 C-36.25377603 303.75203121 -36.43128488 302.61714271 -37 300 C-39.47661498 297.75149517 -39.47661498 297.75149517 -42 296 C-42.33 297.32 -42.66 298.64 -43 300 C-44.4540625 298.9171875 -44.4540625 298.9171875 -45.9375 297.8125 C-48.56400868 295.92371587 -51.18452111 294.34632629 -54.0625 292.875 C-81.7864677 277.73997682 -101.85194876 249.05224896 -110.8203125 219.296875 C-116.28655423 199.98687639 -117.0978261 180.86619754 -114.78198242 161.03540039 C-114.17772907 155.85707117 -113.76378008 150.70621869 -113.5 145.5 C-113.1508985 139.20347833 -112.34401678 133.15898954 -111 127 C-109.515 126.505 -109.515 126.505 -108 126 C-107.87471924 125.19071045 -107.74943848 124.3814209 -107.62036133 123.54760742 C-102.24620273 89.18467675 -94.35863615 43.14610188 -65.55078125 19.7109375 C-51.48736422 10.27789514 -36.53940782 6.4759304 -19.796875 9.72265625 C-11.22331733 11.65239922 -3.1254208 14.68325008 5 18 C6.485 18.495 6.485 18.495 8 19 C6.00386732 12.2813095 3.2708579 6.19265192 0 0 Z M34 344 C34.33 344.99 34.66 345.98 35 347 C35 346.01 35 345.02 35 344 C34.67 344 34.34 344 34 344 Z M72 400 C73 403 73 403 73 403 Z " fill="#FCFCFC" transform="translate(126,203)"/>
<path d="M0 0 C21.12496141 14.6781067 34.83705921 37.01977207 43 61 C43.52502066 62.38679453 44.05371192 63.77220459 44.5859375 65.15625 C46.30368124 69.70951166 47.28052741 74.19089377 48 79 C48.13277344 79.68449219 48.26554687 80.36898437 48.40234375 81.07421875 C49.30701962 89.40675962 43.94720408 97.0202319 40 104 C39.43796875 104.99644531 38.8759375 105.99289063 38.296875 107.01953125 C33.67646429 114.6790956 27.93727297 121.34600704 22 128 C21.39285156 128.680625 20.78570312 129.36125 20.16015625 130.0625 C15.10400265 135.40298498 9.10086877 139.91732454 3 144 C2.34 144 1.68 144 1 144 C-2.18930549 137.07852851 -4.69124472 130.1398076 -6.75 122.8125 C-7.06553833 121.70962646 -7.06553833 121.70962646 -7.38745117 120.58447266 C-9.43686742 113.06575538 -10.14451136 105.72857885 -10.0625 97.9375 C-10.05347656 96.81214844 -10.04445312 95.68679687 -10.03515625 94.52734375 C-10.02355469 93.69332031 -10.01195312 92.85929687 -10 92 C-9.39027344 92.77214844 -8.78054687 93.54429687 -8.15234375 94.33984375 C-1.76228573 102.23753796 4.56172877 106.55457283 14 110 C14.20496094 109.37351562 14.40992188 108.74703125 14.62109375 108.1015625 C14.89050781 107.28429687 15.15992188 106.46703125 15.4375 105.625 C15.70433594 104.81289062 15.97117188 104.00078125 16.24609375 103.1640625 C17 101 17 101 18 99 C19.5202839 79.95906721 13.20749271 64.8679912 1.1484375 50.3125 C-0.78320268 48.23335275 -2.66863677 46.60347154 -5 45 C-5.23976562 45.78375 -5.47953125 46.5675 -5.7265625 47.375 C-7.03739846 51.10645943 -8.57142528 54.66780881 -10.1730957 58.28100586 C-14.19491141 67.37931208 -17.77586882 76.27589159 -20 86 C-20.17901855 86.67224609 -20.35803711 87.34449219 -20.54248047 88.03710938 C-24.74555215 103.99814109 -24.27978867 120.0175793 -23.85253906 136.38549805 C-23.83547913 137.30980621 -23.81841919 138.23411438 -23.80084229 139.18643188 C-23.76776931 140.93788991 -23.71799895 142.68913916 -23.64886475 144.43954468 C-23.58158777 148.51926426 -23.61973906 150.42848328 -25.9387207 153.91381836 C-26.95905396 154.94647827 -26.95905396 154.94647827 -28 156 C-29.26146011 158.46658704 -29.26146011 158.46658704 -30.1875 161 C-30.51105469 161.825 -30.83460937 162.65 -31.16796875 163.5 C-31.99574906 165.98722722 -32.54406909 168.42099686 -33 171 C-36.89709482 167.10290518 -37.62784841 161.21484922 -39 156 C-39.22155762 155.18144531 -39.44311523 154.36289063 -39.67138672 153.51953125 C-50.56674764 111.85408961 -44.13731027 66.56740198 -22.47949219 29.43554688 C-16.01912362 18.80045828 -8.68377714 8.92499318 0 0 Z " fill="#FBFBFB" transform="translate(83,41)"/>
<path d="M0 0 C1.42871094 1.49023437 1.42871094 1.49023437 2.734375 3.59375 C3.46611938 4.75668579 3.46611938 4.75668579 4.21264648 5.94311523 C4.71997314 6.78688721 5.2272998 7.63065918 5.75 8.5 C6.27859619 9.35988525 6.80719238 10.21977051 7.35180664 11.10571289 C12.04788118 18.85298598 16.20809464 26.77680476 20 35 C20.45761719 35.98742187 20.91523438 36.97484375 21.38671875 37.9921875 C28.26734782 53.66352564 32.40664594 70.1238452 35 87 C35.1045752 87.67482422 35.20915039 88.34964844 35.31689453 89.04492188 C36.33738517 96.7342002 36.23806087 104.50720694 36.25 112.25 C36.25266876 113.00034515 36.25533752 113.75069031 36.25808716 114.52377319 C36.27681894 125.58894773 35.55970682 136.20698287 33.55859375 147.11328125 C32.86604692 151.93205115 32.85467202 154.38588661 35.6796875 158.3671875 C36.76636719 159.60855469 36.76636719 159.60855469 37.875 160.875 C48.19700431 173.10788169 57.01806374 186.1326219 65 200 C65.45906738 200.79083984 65.91813477 201.58167969 66.39111328 202.39648438 C75.3914844 218.09590581 81.25211171 234.6238833 86.91015625 251.75585938 C87.17699219 252.56345703 87.44382812 253.37105469 87.71875 254.203125 C87.94498047 254.89567383 88.17121094 255.58822266 88.40429688 256.30175781 C88.98921645 258.0833879 88.98921645 258.0833879 90 260 C90.039992 261.99960012 90.04346799 264.00047242 90 266 C88.68 266.33 87.36 266.66 86 267 C83.51504145 261.0549975 81.03879208 255.10697583 78.60546875 249.140625 C73.84483249 237.50979067 68.92844451 226.08492753 63 215 C62.61875977 214.28150879 62.23751953 213.56301758 61.84472656 212.82275391 C53.75779007 197.66219166 44.5677526 183.55756161 34 170 C33.31679688 169.12214844 32.63359375 168.24429688 31.9296875 167.33984375 C14.61706386 145.65115104 -6.09059573 126.10781961 -30.296875 112.296875 C-30.85890625 111.86890625 -31.4209375 111.4409375 -32 111 C-32 108 -32 108 -30.49609375 106.34375 C-29.81675781 105.7353125 -29.13742187 105.126875 -28.4375 104.5 C-18.88242885 95.24880037 -14.06269326 83.44544495 -10 71 C-5.37674097 75.62325903 -5.08402838 84.43713451 -4.87597656 90.78271484 C-4.92243652 93.30234945 -4.97811224 95.82182998 -5.04272461 98.34106445 C-5.81209166 110.41799974 -5.81209166 110.41799974 -1.33203125 121.0703125 C1.7912388 123.90052926 5.37675951 125.87458872 9 128 C11.5703125 130.546875 11.5703125 130.546875 13.6875 133.0625 C14.28949219 133.77535156 14.89148438 134.48820313 15.51171875 135.22265625 C16.24841797 136.10244141 16.24841797 136.10244141 17 137 C17.66 137.66 18.32 138.32 19 139 C17.6128558 134.40639183 15.73993255 130.39340498 13.4375 126.1875 C12.81746094 125.04667969 12.19742188 123.90585938 11.55859375 122.73046875 C10.25367635 120.16582188 10.25367635 120.16582188 9 119 C8.90012189 117.44013888 8.87032721 115.87554847 8.875 114.3125 C8.87113281 113.03826172 8.87113281 113.03826172 8.8671875 111.73828125 C9 109 9 109 9.49780273 106.19726562 C13.65064884 79.75794984 8.29620485 51.40419617 -2 27 C-17.81218339 34.34883413 -27.39163415 52.88932426 -33.3125 68.44921875 C-35.73718098 75.83914719 -37.04136288 83.29306208 -38 91 C-41.36691551 88.00559429 -42.97777483 85.30151284 -44.625 81.125 C-45.02976562 80.11695312 -45.43453125 79.10890625 -45.8515625 78.0703125 C-46.23054688 77.05710937 -46.60953125 76.04390625 -47 75 C-47.37382812 74.09507813 -47.74765625 73.19015625 -48.1328125 72.2578125 C-49.33931022 67.72529404 -49.28985109 63.41921929 -49.25 58.75 C-49.25773437 57.85925781 -49.26546875 56.96851563 -49.2734375 56.05078125 C-49.22598896 39.70476088 -43.40654076 26.13505335 -31.8984375 14.62890625 C-23.21178278 6.75004018 -11.97881279 0 0 0 Z " fill="#FAFAFA" transform="translate(328,44)"/>
<path d="M0 0 C11.55688974 10.88175198 16.68272096 32.79825654 17.23828125 48.1328125 C17.6867293 72.00866741 13.07373268 91.38302343 1 112 C0 109 0 109 0.1875 105.1875 C0.26027814 100.81272486 -1.14601646 98.35762769 -4 95 C-4.66 95 -5.32 95 -6 95 C-6.49628906 96.01578125 -6.99257813 97.0315625 -7.50390625 98.078125 C-15.82414763 115.00358997 -23.94120693 131.39653131 -41 141 C-41.66 140.67 -42.32 140.34 -43 140 C-42.52949219 139.01 -42.05898438 138.02 -41.57421875 137 C-40.9451475 135.66674451 -40.31625061 134.33340673 -39.6875 133 C-39.37876953 132.35160156 -39.07003906 131.70320312 -38.75195312 131.03515625 C-35.14199961 123.3592551 -32.61434385 116.48924591 -31.8125 108 C-31.73064453 107.22527344 -31.64878906 106.45054687 -31.56445312 105.65234375 C-31.36683908 103.76919817 -31.18204626 101.88471423 -31 100 C-49.67195113 112.38880408 -60.99637647 129.98912942 -68 151 C-68.66 151 -69.32 151 -70 151 C-74.51194941 140.99524261 -75.03576956 130.52755176 -72 120 C-71.57203125 119.07058594 -71.1440625 118.14117187 -70.703125 117.18359375 C-69.72863265 112.77130895 -71.41937562 110.22788685 -73.5625 106.5 C-74.32235616 105.08129575 -75.07618782 103.65934969 -75.82421875 102.234375 C-76.38375244 101.16993164 -76.38375244 101.16993164 -76.95458984 100.08398438 C-83.1675468 87.69869699 -85.48733578 74.75369879 -85 61 C-82.34358456 63.65641544 -81.95073284 66.08793242 -80.875 69.6875 C-77.44271457 80.52935201 -72.42355718 92.1380133 -64 100 C-61.72190762 101.15747653 -61.72190762 101.15747653 -59 101 C-56.59093534 99.3970336 -54.66859797 97.87871091 -52.5625 95.9375 C-51.95849365 95.39818848 -51.3544873 94.85887695 -50.73217773 94.30322266 C-48.7995216 92.5577106 -46.89613721 90.78508049 -45 89 C-44.37222656 88.4107373 -43.74445313 87.82147461 -43.09765625 87.21435547 C-35.88754808 80.38086677 -29.14063792 73.57232382 -24 65 C-23.44699219 64.09507812 -22.89398438 63.19015625 -22.32421875 62.2578125 C-19.00953849 56.54612002 -17.06834745 51.51691945 -16 45 C-15.34 45 -14.68 45 -14 45 C-12.22488199 51.32479022 -11.42504164 57.46261982 -10.875 64 C-10.78863281 64.96550781 -10.70226562 65.93101562 -10.61328125 66.92578125 C-10.40319492 69.28341676 -10.19889508 71.64139857 -10 74 C-6.69336737 65.81057319 -3.70489809 57.67322747 -1.6875 49.0625 C-1.44918457 48.05425171 -1.44918457 48.05425171 -1.20605469 47.02563477 C0.76420339 38.19952811 1.16057299 29.5236829 1.125 20.5 C1.12886719 19.51902344 1.13273437 18.53804688 1.13671875 17.52734375 C1.12883165 11.60413463 0.76459736 5.87404955 0 0 Z " fill="#F9F8F8" transform="translate(341,284)"/>
<path d="M0 0 C0.99 0.33 1.98 0.66 3 1 C3.23783203 2.41925781 3.23783203 2.41925781 3.48046875 3.8671875 C5.32081077 14.45729721 7.87418814 24.71848986 11 35 C11.25265625 35.83192871 11.5053125 36.66385742 11.765625 37.52099609 C18.50611203 59.38214673 27.82704783 81.56254412 40 101 C40.0501123 100.41508789 40.10022461 99.83017578 40.15185547 99.22753906 C40.38451235 96.56754819 40.62962436 93.90884651 40.875 91.25 C40.95363281 90.32960938 41.03226563 89.40921875 41.11328125 88.4609375 C41.19707031 87.57148438 41.28085937 86.68203125 41.3671875 85.765625 C41.44050293 84.94868164 41.51381836 84.13173828 41.58935547 83.29003906 C42.02109144 80.88237951 42.80326384 79.12090608 44 77 C47.764448 80.45516236 50.49467754 84.38107792 53.375 88.5625 C63.60470086 103.21061847 74.17473939 117.5088936 85.57177734 131.27197266 C87.60462269 133.73154178 89.61297623 136.21088815 91.625 138.6875 C99.11390278 147.8193065 106.73167134 156.79568523 114.71484375 165.5 C117.86867821 168.95034881 120.94402071 172.46313057 124 176 C124.50789063 176.5671875 125.01578125 177.134375 125.5390625 177.71875 C129 181.66305866 129 181.66305866 129 185 C115.81680897 180.05043896 105.65200216 169.96055618 95.40625 160.640625 C94.36984375 159.70476562 94.36984375 159.70476562 93.3125 158.75 C92.47138672 157.96882813 92.47138672 157.96882813 91.61328125 157.171875 C89.75141283 155.8194282 88.22092385 155.54467524 86 155 C83.89453125 153.73046875 83.89453125 153.73046875 81.8125 152.1875 C81.11769531 151.68605469 80.42289062 151.18460938 79.70703125 150.66796875 C77.74622397 148.75203121 77.56871512 147.61714271 77 145 C74.52338502 142.75149517 74.52338502 142.75149517 72 141 C71.67 142.32 71.34 143.64 71 145 C70.030625 144.278125 69.06125 143.55625 68.0625 142.8125 C65.43599132 140.92371587 62.81547889 139.34632629 59.9375 137.875 C32.2135323 122.73997682 12.14805124 94.05224896 3.1796875 64.296875 C-2.90420196 42.80497931 -2.87534416 21.95017195 0 0 Z " fill="#050303" transform="translate(12,358)"/>
<path d="M0 0 C-1.02738281 0.53367188 -2.05476563 1.06734375 -3.11328125 1.6171875 C-12.23802726 6.4807036 -19.72615103 11.61827615 -27 19 C-25.87464844 19.02578125 -24.74929687 19.0515625 -23.58984375 19.078125 C-10.24090131 19.51821609 2.19263736 21.25293563 14 28 C14 28.66 14 29.32 14 30 C13.20980469 30.01417969 12.41960937 30.02835937 11.60546875 30.04296875 C-7.77396177 30.86244181 -26.50891 36.60320284 -41 50 C-41.66 50.99 -42.32 51.98 -43 53 C-41.8553125 52.505 -41.8553125 52.505 -40.6875 52 C-38 51 -38 51 -35 51 C-36.82022891 55.82040521 -39.15786122 60.34762789 -41.52148438 64.91601562 C-44.50944574 70.78409261 -45.12353204 74.65854014 -45.0625 81.25 C-45.05347656 82.51328125 -45.04445313 83.7765625 -45.03515625 85.078125 C-45.02355469 86.04234375 -45.01195313 87.0065625 -45 88 C-44.45730469 87.09636719 -43.91460937 86.19273437 -43.35546875 85.26171875 C-42.63303739 84.07017612 -41.91036864 82.8787774 -41.1875 81.6875 C-40.83107422 81.09259766 -40.47464844 80.49769531 -40.10742188 79.88476562 C-38.3144716 76.9403794 -36.60825874 74.27914092 -34 72 C-33.72027344 73.01578125 -33.44054687 74.0315625 -33.15234375 75.078125 C-27.66395966 94.24071988 -17.6081575 108.99792415 0 118.875 C1.33006122 119.58945856 2.66220282 120.30013388 4 121 C3.67 121.66 3.34 122.32 3 123 C-12.68116171 122.29204688 -28.28081181 116.46660114 -39.4140625 105.1875 C-39.93742187 104.795625 -40.46078125 104.40375 -41 104 C-44.21072736 104.71458446 -44.21072736 104.71458446 -45.625 107.625 C-47.05195979 111.12753767 -47.48842994 114.27284671 -48 118 C-48.99 118.495 -48.99 118.495 -50 119 C-55.69427709 104.35757319 -56.50027366 88.5432124 -57 73 C-62.59878954 77.49690011 -67.08282821 82.34555329 -71.43359375 88.05859375 C-71.95050781 88.69925781 -72.46742187 89.33992188 -73 90 C-73.33 90 -73.66 90 -74 90 C-75.17990577 73.94017141 -68.97015478 58.45376386 -58.87109375 46.10546875 C-55.73491952 42.57645433 -52.40682623 39.26585411 -49 36 C-48.34 35.34 -47.68 34.68 -47 34 C-48.13179687 34.58910156 -49.26359375 35.17820312 -50.4296875 35.78515625 C-51.91124428 36.54468852 -53.39302687 37.30378042 -54.875 38.0625 C-55.62136719 38.45244141 -56.36773437 38.84238281 -57.13671875 39.24414062 C-57.85214844 39.60830078 -58.56757812 39.97246094 -59.3046875 40.34765625 C-59.96452637 40.68804932 -60.62436523 41.02844238 -61.30419922 41.37915039 C-61.86381348 41.58403076 -62.42342773 41.78891113 -63 42 C-63.66 41.67 -64.32 41.34 -65 41 C-60.39569699 33.21265793 -55.3324284 26.4621027 -49 20 C-48.34773438 19.31164062 -47.69546875 18.62328125 -47.0234375 17.9140625 C-37.82203946 8.92582426 -24.64480952 2.25353041 -12 0 C-10.85917969 -0.20882812 -10.85917969 -0.20882812 -9.6953125 -0.421875 C-6.16198247 -0.96546424 -3.41234683 -0.98995556 0 0 Z " fill="#0C0707" transform="translate(127,232)"/>
<path d="M0 0 C0.33 0 0.66 0 1 0 C1.1451001 0.58265625 1.2902002 1.1653125 1.43969727 1.765625 C8.69370188 30.52166356 21.07956634 56.57977925 45.6875 74.5625 C59.10281173 84.68408824 68.18188994 101.98815286 75.625 116.75 C75.943479 117.38059326 76.26195801 118.01118652 76.59008789 118.66088867 C78.55853009 122.70999216 79.87662998 126.66223458 81 131 C80.01 131 79.02 131 78 131 C76.37890625 129.015625 76.37890625 129.015625 74.5625 126.25 C67.06990938 115.5874672 57.8091895 107.23449691 47 100 C47.27714844 101.09699219 47.55429688 102.19398438 47.83984375 103.32421875 C48.20579237 104.77862993 48.57167427 106.2330579 48.9375 107.6875 C49.11990234 108.40873047 49.30230469 109.12996094 49.49023438 109.87304688 C51.04250401 116.05390233 52.12601171 121.57340289 52 128 C51.34 128.33 50.68 128.66 50 129 C49.79246094 128.27296875 49.58492187 127.5459375 49.37109375 126.796875 C44.48150209 110.83921183 34.65218603 97.96019662 23.4375 85.875 C22.97794922 85.37838867 22.51839844 84.88177734 22.04492188 84.37011719 C21.59052734 83.87930664 21.13613281 83.38849609 20.66796875 82.8828125 C19.34732422 81.45582031 19.34732422 81.45582031 18 80 C17.19175781 79.13117188 16.38351563 78.26234375 15.55078125 77.3671875 C9.03682798 69.95742741 5.50517512 62.10199424 2 53 C1.66097656 52.15308594 1.32195313 51.30617188 0.97265625 50.43359375 C-4.44015728 35.8109184 -5.38837293 16.05500203 -1 1 C-0.67 0.67 -0.34 0.34 0 0 Z " fill="#0C0707" transform="translate(36,323)"/>
<path d="M0 0 C17.11473242 -0.8193223 32.95988029 4.51849606 46 15.75 C50.47010312 20.09983128 53.79906804 24.83587708 57.08984375 30.11328125 C58.9520401 32.92752072 60.94926135 35.28825201 63.25 37.75 C67.41470213 42.27542437 70.72831713 46.73980553 71.25 53 C71.1675 53.66 71.085 54.32 71 55 C70.01 55 69.02 55 68 55 C66.87644084 53.60406287 65.75553263 52.20590517 64.6484375 50.796875 C59.88603968 45.60563567 54.12177373 41.52110539 47 41 C45.34189576 41.7477725 43.68479847 42.49839079 42.04296875 43.28125 C36.28428863 45.30724836 29.904903 44.67832469 24.3125 42.4375 C16.52425546 38.43171831 11.63229448 33.79147352 8.71484375 25.46484375 C8.10937287 23.37712722 7.63358417 21.25247837 7.1875 19.125 C6.09002309 14.06211123 3.11976354 9.95097259 0.36328125 5.63671875 C-0.08660156 4.76660156 -0.53648438 3.89648438 -1 3 C-0.67 2.01 -0.34 1.02 0 0 Z " fill="#0A0606" transform="translate(102,282)"/>
<path d="M0 0 C-1.54542492 3.30720934 -3.46112452 6.22624399 -5.5 9.25 C-8.47458799 13.85721008 -10.08562671 17.61535726 -11 23 C-11.66 23 -12.32 23 -13 23 C-13 22.01 -13 21.02 -13 20 C-13.52207031 20.24234375 -14.04414063 20.4846875 -14.58203125 20.734375 C-18.83515732 22.67099983 -23.08187488 24.41078539 -27.5 25.9375 C-32.69169647 27.78857841 -37.25885599 30.21864295 -42 33 C-43.41647449 33.75036288 -44.83314539 34.50035511 -46.25 35.25 C-55.40042019 40.35497127 -63.9099595 46.25042085 -71 54 C-72.31038168 50.06885495 -71.37989883 49.02867974 -69.5625 45.375 C-66.93643438 40.3230077 -63.98152524 36.3820957 -60.06640625 32.28125 C-57.81834993 29.79946382 -55.96525686 27.19139065 -54.0625 24.4375 C-45.18877214 12.13762238 -31.9735558 3.57798194 -17.07421875 0.38671875 C-11.38682765 -0.32872181 -5.7181493 -0.22838762 0 0 Z " fill="#F8F8F7" transform="translate(298,283)"/>
<path d="M0 0 C16.03333094 8.01666547 34.51135399 21.02294275 40.94921875 38.2734375 C41.93559138 40.96241663 41.93559138 40.96241663 43.14453125 43.2890625 C47.39014713 52.50039872 46.30051437 62.58966472 45.94995117 72.49560547 C46.00215935 75.10805194 46.41369637 77.45830684 47 80 C44.125 80.1875 44.125 80.1875 41 80 C38.73640922 76.60461383 38.88539568 75.94425555 39.1875 72.0625 C39.36784345 64.54818943 36.29477419 58.58954838 33 52 C31.845 51.525625 30.69 51.05125 29.5 50.5625 C28.345 50.046875 27.19 49.53125 26 49 C25.67 48.01 25.34 47.02 25 46 C22.98491642 45.26676204 22.98491642 45.26676204 21 45 C21 44.34 21 43.68 21 43 C19.515 42.505 19.515 42.505 18 42 C17.87182911 34.43791722 17.87182911 34.43791722 18.75 31.4375 C19.20526008 26.99871426 16.00239807 23.30478816 13.38867188 19.90258789 C11.57383618 17.68531688 9.73275343 15.49392387 7.875 13.3125 C6.61881785 11.83245646 5.3660757 10.34948472 4.1171875 8.86328125 C3.56659668 8.21657471 3.01600586 7.56986816 2.44873047 6.90356445 C1.00991763 5.01303131 -0.01306186 3.15552318 -1 1 C-0.67 0.67 -0.34 0.34 0 0 Z M22 38 C22.33 38.99 22.66 39.98 23 41 C23 40.01 23 39.02 23 38 C22.67 38 22.34 38 22 38 Z " fill="#0A0707" transform="translate(138,509)"/>
<path d="M0 0 C-2.03898651 2.03898651 -3.35642103 2.71055708 -5.97265625 3.8125 C-6.7814624 4.16046631 -7.59026855 4.50843262 -8.42358398 4.86694336 C-9.72984741 5.4278064 -9.72984741 5.4278064 -11.0625 6 C-29.19995933 13.99966172 -46.46645752 23.8343018 -59.390625 39.1640625 C-59.92171875 39.76992187 -60.4528125 40.37578125 -61 41 C-61.33 41 -61.66 41 -62 41 C-62.19294408 36.17639811 -61.75747614 32.50353262 -60 28 C-63.63 29.32 -67.26 30.64 -71 32 C-70.30538583 22.97001578 -64.50445933 14.99382888 -58 9 C-52.5309279 4.88426452 -47.8943923 1.79979 -41 1 C-42.21294604 4.72547711 -43.52812198 8.36977984 -45 12 C-44.1028125 11.46890625 -43.205625 10.9378125 -42.28125 10.390625 C-28.5443424 2.51010542 -15.89126634 -0.89388373 0 0 Z " fill="#F5F5F5" transform="translate(287,206)"/>
<path d="M0 0 C2.66604583 1.33302292 2.99124788 2.18990481 4 5 C4.47097007 11.94680853 4.27805668 19.13615732 -0.1875 24.75 C-3.38946437 27.31157149 -6.55067494 29.77999414 -10 32 C-10.58394531 32.38542969 -11.16789062 32.77085937 -11.76953125 33.16796875 C-19.94122381 37.93335578 -29.92663809 37.60118151 -39 36 C-39.27263672 35.04287109 -39.27263672 35.04287109 -39.55078125 34.06640625 C-39.80214844 33.24011719 -40.05351562 32.41382813 -40.3125 31.5625 C-40.55613281 30.73878906 -40.79976562 29.91507812 -41.05078125 29.06640625 C-41.36402344 28.38449219 -41.67726562 27.70257813 -42 27 C-42.99 26.67 -43.98 26.34 -45 26 C-38.4865013 21.96717421 -31.88539471 18.35210006 -25 15 C-23.62475058 14.29215104 -22.24973491 13.58384769 -20.875 12.875 C-15.47484395 10.18037668 -9.99064721 7.93603863 -4 7 C-4 7.99 -4 8.98 -4 10 C-3.34 10 -2.68 10 -2 10 C-1.855625 8.72125 -1.71125 7.4425 -1.5625 6.125 C-1.29357254 3.74307106 -1.07773654 2.15547309 0 0 Z " fill="#005200" transform="translate(289,296)"/>
<path d="M0 0 C0 0.99 0 1.98 0 3 C0.66 3.33 1.32 3.66 2 4 C-0.29993549 10.20982583 -2.30192064 14.42473452 -8 18 C-11.875 18.8125 -11.875 18.8125 -15 19 C-15 19.66 -15 20.32 -15 21 C-19.28297531 22.05619003 -23.42985646 22.11702092 -27.8125 22.0625 C-28.50537109 22.05798828 -29.19824219 22.05347656 -29.91210938 22.04882812 C-31.60811068 22.03713156 -33.30406703 22.01919924 -35 22 C-33.6262658 19.10385907 -32.25606768 17.25606768 -30 15 C-29.67 14.01 -29.34 13.02 -29 12 C-26.49435309 10.53615917 -24.04823647 9.24566081 -21.4375 8 C-20.40012695 7.48566406 -20.40012695 7.48566406 -19.34179688 6.9609375 C-14.65219985 4.67077083 -9.90144572 2.78814958 -5 1 C-3 0 -3 0 0 0 Z " fill="#05EF05" transform="translate(285,303)"/>
<path d="M0 0 C0 1.65 0 3.3 0 5 C0.99 4.34 1.98 3.68 3 3 C4.32 3 5.64 3 7 3 C6.67 3.99 6.34 4.98 6 6 C5.34 6 4.68 6 4 6 C2.98854799 7.65974173 1.99119291 9.32808063 1 11 C-0.60894805 12.84532105 -2.25758756 14.6565402 -3.9375 16.4375 C-7.39628264 20.10495731 -10.22569129 23.79704087 -13 28 C-16.92054327 31.17881887 -20.02093993 31.46972265 -25 31 C-25.66 30.34 -26.32 29.68 -27 29 C-25.57107422 28.22076172 -25.57107422 28.22076172 -24.11328125 27.42578125 C-22.84610841 26.72179634 -21.57919502 26.01734428 -20.3125 25.3125 C-19.37374023 24.80299805 -19.37374023 24.80299805 -18.41601562 24.28320312 C-12.97204423 21.23343905 -8.73378991 18.55092056 -6.92578125 12.265625 C-6.70147327 10.93027106 -6.49729687 9.59139269 -6.3125 8.25 C-5.9419383 5.80567373 -5.51106007 3.42236565 -5 1 C-3 0 -3 0 0 0 Z " fill="#001900" transform="translate(298,302)"/>
<path d="M0 0 C3 6.75 3 6.75 3 9 C9.93 9 16.86 9 24 9 C23.34 10.65 22.68 12.3 22 14 C20.72125 13.835 19.4425 13.67 18.125 13.5 C9.36117449 12.23974052 9.36117449 12.23974052 1 14 C1 12.68 1 11.36 1 10 C-0.32 10 -1.64 10 -3 10 C-3.12375 8.88625 -3.2475 7.7725 -3.375 6.625 C-3.6465813 2.96896323 -3.6465813 2.96896323 -6 1 C-4 0 -4 0 0 0 Z " fill="#012101" transform="translate(247,323)"/>
<path d="M0 0 C2.66604583 1.33302292 2.99124788 2.18990481 4 5 C4.47097007 11.94680853 4.27805668 19.13615732 -0.1875 24.75 C-3.38168527 27.30534822 -6.62705266 29.68523222 -10 32 C-10.66 31.67 -11.32 31.34 -12 31 C-11.278125 30.29875 -10.55625 29.5975 -9.8125 28.875 C-3.38377014 22.54990351 -3.38377014 22.54990351 -1 14 C-1.33 14 -1.66 14 -2 14 C-2.3690205 4.58997722 -2.3690205 4.58997722 0 0 Z " fill="#004500" transform="translate(289,296)"/>
<path d="M0 0 C0.33 0.66 0.66 1.32 1 2 C-3.74510991 3.9126443 -7.3027285 4.10351618 -12.375 3.625 C-13.62023437 3.51414062 -14.86546875 3.40328125 -16.1484375 3.2890625 C-17.08945313 3.19367188 -18.03046875 3.09828125 -19 3 C-19.33 2.01 -19.66 1.02 -20 0 C-17.41703983 -0.19522373 -14.83395921 -0.38144403 -12.25 -0.5625 C-11.52039063 -0.61857422 -10.79078125 -0.67464844 -10.0390625 -0.73242188 C-6.4838261 -0.97482436 -3.38557873 -1.17713829 0 0 Z " fill="#006500" transform="translate(272,327)"/>
<path d="M0 0 C0 0.66 0 1.32 0 2 C-0.99 2.495 -0.99 2.495 -2 3 C-1.34 3.66 -0.68 4.32 0 5 C-2 7 -2 7 -4.875 7.25 C-8 7 -8 7 -9.8046875 5.9921875 C-12.71806119 4.67546701 -15.06884817 4.80584453 -18.25 4.875 C-19.86648438 4.90207031 -19.86648438 4.90207031 -21.515625 4.9296875 C-22.33546875 4.95289063 -23.1553125 4.97609375 -24 5 C-24 4.67 -24 4.34 -24 4 C-19.05 3.67 -14.1 3.34 -9 3 C-9 2.34 -9 1.68 -9 1 C-2.25 -1.125 -2.25 -1.125 0 0 Z " fill="#117A11" transform="translate(279,321)"/>
<path d="M0 0 C0.99 0.33 1.98 0.66 3 1 C9.73022527 1.37512731 16.33014141 0.87473555 23 0 C22.34 1.65 21.68 3.3 21 5 C19.72125 4.835 18.4425 4.67 17.125 4.5 C8.36117449 3.23974052 8.36117449 3.23974052 0 5 C0 3.35 0 1.7 0 0 Z " fill="#001200" transform="translate(248,332)"/>
<path d="M0 0 C0.66 0.33 1.32 0.66 2 1 C-0.28356246 3.34138543 -2.57813374 5.67166982 -4.875 8 C-5.52597656 8.66773438 -6.17695313 9.33546875 -6.84765625 10.0234375 C-7.47285156 10.65507813 -8.09804688 11.28671875 -8.7421875 11.9375 C-9.3182373 12.52402344 -9.89428711 13.11054687 -10.48779297 13.71484375 C-12 15 -12 15 -14 15 C-14.2475 15.598125 -14.495 16.19625 -14.75 16.8125 C-16.16370012 19.28647521 -17.65055383 20.43370255 -20 22 C-16.72563703 14.8313704 -10.7370136 9.54456545 -4.796875 4.54296875 C-3.11316264 3.09717227 -1.54694933 1.58992015 0 0 Z " fill="#504F4F" transform="translate(298,24)"/>
<path d="M0 0 C1.65 0 3.3 0 5 0 C1.61227103 4.69159716 -1.78185183 9.0299782 -6 13 C-6 9.2856305 -4.72768962 7.24805648 -3 4 C-2.67 3.34 -2.34 2.68 -2 2 C-1.34 2 -0.68 2 0 2 C0 1.34 0 0.68 0 0 Z " fill="#0E1A0D" transform="translate(247,298)"/>
<path d="M0 0 C-1.5294997 3.44137432 -3.45369552 6.2222133 -6 9 C-6.99 9 -7.98 9 -9 9 C-9 8.34 -9 7.68 -9 7 C-9.99 6.67 -10.98 6.34 -12 6 C-10.37829621 4.99466333 -8.75252763 3.99588093 -7.125 3 C-5.76761719 2.1646875 -5.76761719 2.1646875 -4.3828125 1.3125 C-2 0 -2 0 0 0 Z " fill="#17A217" transform="translate(256,316)"/>
<path d="M0 0 C-0.33 3.3 -0.66 6.6 -1 10 C-1.66 10 -2.32 10 -3 10 C-3 10.99 -3 11.98 -3 13 C-3.99 13.33 -4.98 13.66 -6 14 C-5.71926927 11.85270859 -5.42511501 9.70716807 -5.125 7.5625 C-4.96257812 6.36753906 -4.80015625 5.17257812 -4.6328125 3.94140625 C-4.42398437 2.97074219 -4.21515625 2.00007813 -4 1 C-2 0 -2 0 0 0 Z " fill="#002800" transform="translate(297,302)"/>
<path d="M0 0 C1.67542976 0.28604898 3.34385343 0.61781233 5 1 C3 4 3 4 0.94140625 4.58203125 C0.15636719 4.65808594 -0.62867188 4.73414063 -1.4375 4.8125 C-2.21996094 4.90144531 -3.00242187 4.99039062 -3.80859375 5.08203125 C-6 5 -6 5 -9 3 C-8.43410156 2.86722656 -7.86820312 2.73445313 -7.28515625 2.59765625 C-6.18494141 2.33275391 -6.18494141 2.33275391 -5.0625 2.0625 C-4.33160156 1.88847656 -3.60070312 1.71445312 -2.84765625 1.53515625 C-1.00030102 1.16112431 -1.00030102 1.16112431 0 0 Z " fill="#001100" transform="translate(280,328)"/>
<path d="M0 0 C0.33 1.32 0.66 2.64 1 4 C-2.19990508 6.74277578 -5.00499382 8.6302836 -9 10 C-6.68116787 5.49115974 -3.93548431 3.06093224 0 0 Z " fill="#004E00" transform="translate(286,318)"/>
<path d="M0 0 C1.28210284 3.84630851 0.44814155 4.9891751 -1.1875 8.625 C-1.61417969 9.60726563 -2.04085938 10.58953125 -2.48046875 11.6015625 C-4 14 -4 14 -6.17578125 14.8359375 C-6.77777344 14.89007813 -7.37976563 14.94421875 -8 15 C-6.62712658 11.30123909 -4.93644547 8.0485524 -2.875 4.6875 C-2.33617187 3.80449219 -1.79734375 2.92148437 -1.2421875 2.01171875 C-0.83226562 1.34785156 -0.42234375 0.68398438 0 0 Z " fill="#DDDCDC" transform="translate(289,456)"/>
<path d="M0 0 C-3.09853722 3.09853722 -6.74868686 2.84333519 -11 3 C-14.5625 2.5625 -14.5625 2.5625 -17 2 C-17 1.67 -17 1.34 -17 1 C-14.91835982 0.63601378 -12.83459438 0.28416713 -10.75 -0.0625 C-9.00976562 -0.35833984 -9.00976562 -0.35833984 -7.234375 -0.66015625 C-4.37477376 -0.9606216 -2.66674071 -0.9439206 0 0 Z " fill="#008200" transform="translate(272,327)"/>
<path d="M0 0 C1.5 1.125 1.5 1.125 3 3 C3.1875 6.1875 3.1875 6.1875 3 9 C1.68 9.33 0.36 9.66 -1 10 C-1.33 9.34 -1.66 8.68 -2 8 C-1.34 8 -0.68 8 0 8 C0 5.36 0 2.72 0 0 Z " fill="#D6D5D5" transform="translate(415,301)"/>
<path d="M0 0 C0.33 0 0.66 0 1 0 C1.1799928 5.21979128 0.97094808 9.07262981 -1 14 C-1.33 14 -1.66 14 -2 14 C-2.3690205 4.58997722 -2.3690205 4.58997722 0 0 Z " fill="#195118" transform="translate(289,296)"/>
<path d="M0 0 C0 0.99 0 1.98 0 3 C0.66 3.33 1.32 3.66 2 4 C-1.63 4 -5.26 4 -9 4 C-3.66666667 0 -3.66666667 0 0 0 Z " fill="#27C527" transform="translate(285,303)"/>
<path d="M0 0 C-1.48781815 3.78717347 -3.61988409 5.77407001 -7 8 C-7.99 7.67 -8.98 7.34 -10 7 C-8.71372289 5.82739389 -7.42080217 4.6620717 -6.125 3.5 C-5.04605469 2.52546875 -5.04605469 2.52546875 -3.9453125 1.53125 C-2 0 -2 0 0 0 Z " fill="#008200" transform="translate(286,317)"/>
<path d="M0 0 C0.33 0.99 0.66 1.98 1 3 C-0.21484375 4.82421875 -0.21484375 4.82421875 -1.9375 6.6875 C-2.50339844 7.31011719 -3.06929688 7.93273437 -3.65234375 8.57421875 C-4.09707031 9.04472656 -4.54179687 9.51523437 -5 10 C-5.66 9.67 -6.32 9.34 -7 9 C-4.69 6.03 -2.38 3.06 0 0 Z " fill="#055105" transform="translate(285,312)"/>
<path d="M0 0 C-1.24176695 0.70226141 -2.49385599 1.38629109 -3.75 2.0625 C-4.79414063 2.63677734 -4.79414063 2.63677734 -5.859375 3.22265625 C-8.36140628 4.1312406 -9.5332355 3.88336837 -12 3 C-10.75823305 2.29773859 -9.50614401 1.61370891 -8.25 0.9375 C-7.20585937 0.36322266 -7.20585937 0.36322266 -6.140625 -0.22265625 C-3.63859372 -1.1312406 -2.4667645 -0.88336837 0 0 Z " fill="#3BC73B" transform="translate(276,308)"/>
<path d="M0 0 C0.66 0.66 1.32 1.32 2 2 C0.35 4.97 -1.3 7.94 -3 11 C-3.66 10.01 -4.32 9.02 -5 8 C-3.35 5.36 -1.7 2.72 0 0 Z " fill="#666666" transform="translate(207,607)"/>
<path d="M0 0 C-0.60183749 2.02045442 -1.27306096 4.02111039 -2 6 C-2.99 6.495 -2.99 6.495 -4 7 C-4.66 6.67 -5.32 6.34 -6 6 C-5.6875 4.125 -5.6875 4.125 -5 2 C-2 0 -2 0 0 0 Z " fill="#001400" transform="translate(305,310)"/>
<path d="M0 0 C2.91517292 1.07401108 4.77810176 1.77810176 7 4 C6.34 4.66 5.68 5.32 5 6 C2.5 4.6875 2.5 4.6875 0 3 C0 2.01 0 1.02 0 0 Z " fill="#9F9F9F" transform="translate(141,540)"/>
<path d="M0 0 C0.66 0 1.32 0 2 0 C2.99 2.31 3.98 4.62 5 7 C4.01 7.495 4.01 7.495 3 8 C1.5 6.8125 1.5 6.8125 0 5 C-0.1875 2.3125 -0.1875 2.3125 0 0 Z " fill="#003200" transform="translate(245,323)"/>
<path d="M0 0 C1.65 0 3.3 0 5 0 C3.35 1.65 1.7 3.3 0 5 C-0.99 4.34 -1.98 3.68 -3 3 C-2.01 2.67 -1.02 2.34 0 2 C0 1.34 0 0.68 0 0 Z " fill="#011B01" transform="translate(247,298)"/>
<path d="M0 0 C0.86625 0.3403125 0.86625 0.3403125 1.75 0.6875 C0.1 2.3375 -1.55 3.9875 -3.25 5.6875 C-3.25 5.0275 -3.25 4.3675 -3.25 3.6875 C-4.24 3.3575 -5.23 3.0275 -6.25 2.6875 C-2.80384615 -0.38942308 -2.80384615 -0.38942308 0 0 Z " fill="#246024" transform="translate(250.25,319.3125)"/>
<path d="M0 0 C0.66 0.33 1.32 0.66 2 1 C-0.38957269 4.24299151 -2.2047869 6.50902342 -6 8 C-4.55746343 4.63408134 -2.66735273 2.48952921 0 0 Z " fill="#2F2B2B" transform="translate(195,400)"/>
<path d="M0 0 C1.5625 1.8125 1.5625 1.8125 3 4 C2.67 4.99 2.34 5.98 2 7 C0.68 5.68 -0.64 4.36 -2 3 C-1.34 2.01 -0.68 1.02 0 0 Z " fill="#474343" transform="translate(345,177)"/>
<path d="M0 0 C2.475 0.495 2.475 0.495 5 1 C5.33 2.65 5.66 4.3 6 6 C5.34 5.67 4.68 5.34 4 5 C4 4.34 4 3.68 4 3 C2.68 2.67 1.36 2.34 0 2 C0 1.34 0 0.68 0 0 Z " fill="#F1F1F1" transform="translate(183,591)"/>
<path d="" fill="#000000" transform="translate(0,0)"/>
<path d="" fill="#FFFFFF" transform="translate(0,0)"/>
<path d="" fill="#000000" transform="translate(0,0)"/>
<path d="" fill="#000000" transform="translate(0,0)"/>
<path d="" fill="#000000" transform="translate(0,0)"/>
</svg>
